# xmcd
#
# Track frame offsets: 
#        150
#        26137
#        53038
#        69406
#        98094
#        125203
#        146499
#        172122
#        194963
#        211463
#        236166
#        259727
#
# Disc length: 3768 seconds
#
# Revision: 1
# Processed by: cddbd v1.5.2PL0 Copyright (c) Steve Scherf et al.
# Submitted via: ExactAudioCopyFreeDBPlugin 1.0
#
DISCID=c00eb60c
DTITLE=SF Blues - Man - Be Careful!
DYEAR=2007
DGENRE=Blues
TTITLE0=Man - Be Careful !
TTITLE1=Break Free
TTITLE2=Rock And Roll Hoochie Koo
TTITLE3=How Sweet Is My Sweet-Heart´s Heartbeat?
TTITLE4=Freshing
TTITLE5=Woman, Why?
TTITLE6=Refugee
TTITLE7=The Weight
TTITLE8=Evil Mind
TTITLE9=Blues In The Night
TTITLE10=Good Blues
TTITLE11=In A Wonderworld
EXTD=
EXTT0=
EXTT1=
EXTT2=
EXTT3=
EXTT4=
EXTT5=
EXTT6=
EXTT7=
EXTT8=
EXTT9=
EXTT10=
EXTT11=
PLAYORDER=
